#!OML:ASF H:\Punching\Project 1\Capture day 1\Session 1\female.ASF
:FULLY-SPECIFIED
:DEGREES
2407
root 0.31182 15.2493 9.58718 10.3241 18.5859 -3.37339
lowerback 0.176666 1.37337 3.84424
upperback -5.90772 1.9863 -0.405224
thorax -6.096 0.786952 -2.68078
lowerneck -10.7305 -0.884595 6.38387
upperneck 37.0188 -3.42741 1.9459
head 14.524 -0.193357 -0.811568
rclavicle -2.29441e-014 -8.34896e-015
rhumerus -6.9652 -0.215493 -47.1977
rradius 89.9798
rwrist -5.26367
rhand -29.7898 1.49916
rfingers 7.12502
rthumb -3.11446 -28.4578
lclavicle -2.29441e-014 -8.34896e-015
lhumerus -13.686 -30.9325 72.9225
lradius 116.381
lwrist -0.109118
lhand -19.4544 9.89784
lfingers 7.12502
lthumb 6.86657 39.7665
rfemur -28.728 -2.21214 11.5107
rtibia 35.5664
rfoot -10.9288 -14.8733
rtoes -11.8657
lfemur -9.52105 -14.6732 -1.9423
ltibia 24.8951
lfoot -21.2157 7.46385
ltoes -21.6515
2408
root 0.426797 15.2702 9.522 10.4366 17.9188 -3.45644
lowerback 0.14311 1.33206 3.81356
upperback -5.90039 1.93463 -0.263589
thorax -6.07794 0.767195 -2.51222
lowerneck -10.8246 -0.870429 6.35705
upperneck 36.8917 -3.40605 1.90722
head 14.4843 -0.203037 -0.822152
rclavicle 2.17669e-014 7.95139e-015
rhumerus -8.91811 -0.573653 -46.5018
rradius 89.9231
rwrist -6.06273
rhand -28.8694 1.69931
rfingers 7.12502
rthumb -2.22557 -28.2688
lclavicle 2.17669e-014 7.95139e-015
lhumerus -14.6337 -29.7775 72.7982
lradius 115.916
lwrist 0.020591
lhand -19.4094 10.0034
lfingers 7.12502
lthumb 6.90993 39.8706
rfemur -28.5889 -1.56851 10.9953
rtibia 34.4111
rfoot -9.92351 -14.8822
rtoes -12.224
lfemur -9.19698 -14.5464 -2.48905
ltibia 24.4111
lfoot -21.3048 7.87468
ltoes -21.7689
2409
root 0.542989 15.2924 9.4547 10.5663 17.2373 -3.5059
lowerback 0.126378 1.29198 3.75327
upperback -5.89018 1.88402 -0.125113
thorax -6.06673 0.749233 -2.33102
lowerneck -10.9279 -0.854968 6.31659
upperneck 36.7635 -3.38088 1.87176
head 14.4466 -0.21236 -0.828469
rclavicle -2.7628e-015 1.39149e-014
rhumerus -10.8579 -0.943601 -45.8613
rradius 89.8255
rwrist -6.77575
rhand -28.1208 1.87435
rfingers 7.12502
rthumb -1.5026 -28.1001
lclavicle -2.7628e-015 1.39149e-014
lhumerus -15.5802 -28.5976 72.6795
lradius 115.439
lwrist 0.157262
lhand -19.3457 10.1029
lfingers 7.12502
lthumb 6.97144 39.9681
rfemur -28.4675 -0.899299 10.4328
rtibia 33.2298
rfoot -8.84886 -14.9401
rtoes -12.5859
lfemur -8.89196 -14.3655 -3.09672
ltibia 23.9141
lfoot -21.3648 8.30806
ltoes -21.5887
2410
root 0.659966 15.3156 9.38515 10.7186 16.5483 -3.51107
lowerback 0.125178 1.25374 3.66073
upperback -5.87962 1.83479 0.00139422
thorax -6.06404 0.733053 -2.14488
lowerneck -11.036 -0.840858 6.2718
upperneck 36.6317 -3.35567 1.83421
head 14.4085 -0.222459 -0.834832
rclavicle -1.6015e-014 -1.23246e-014
rhumerus -12.7876 -1.34185 -45.2721
rradius 89.704
rwrist -7.40077
rhand -27.4613 1.96461
rfingers 7.12502
rthumb -0.865666 -28.0134
lclavicle -1.6015e-014 -1.23246e-014
lhumerus -16.5181 -27.4044 72.5516
lradius 114.944
lwrist 0.274055
lhand -19.2717 10.1866
lfingers 7.12502
lthumb 7.04288 40.0495
rfemur -28.3775 -0.218662 9.81418
rtibia 32.0427
rfoot -7.70968 -15.054
rtoes -12.9121
lfemur -8.62335 -14.1415 -3.7696
ltibia 23.4097
lfoot -21.3897 8.75992
ltoes -21.1539
2411
root 0.776733 15.3397 9.31344 10.9015 15.8467 -3.46559
lowerback 0.138229 1.21924 3.52451
upperback -5.87504 1.78901 0.11211
thorax -6.07587 0.720006 -1.95148
lowerneck -11.1371 -0.829217 6.22425
upperneck 36.4921 -3.33069 1.79373
head 14.3652 -0.233647 -0.841764
rclavicle 6.20491e-014 -2.5842e-015
rhumerus -14.7111 -1.76818 -44.7238
rradius 89.5603
rwrist -7.90227
rhand -26.8373 1.95946
rfingers 7.12502
rthumb -0.262981 -28.0201
lclavicle 6.20491e-014 -2.5842e-015
lhumerus -17.4459 -26.2079 72.402
lradius 114.422
lwrist 0.346993
lhand -19.1978 10.2519
lfingers 7.12502
lthumb 7.11425 40.1123
rfemur -28.3282 0.482809 9.13233
rtibia 30.8384
rfoot -6.49298 -15.2391
rtoes -13.1629
lfemur -8.38715 -13.8795 -4.5046
ltibia 22.8644
lfoot -21.3558 9.22454
ltoes -20.4921
2412
root 0.89288 15.3646 9.23998 11.1199 15.1386 -3.36593
lowerback 0.156408 1.18727 3.34341
upperback -5.88241 1.74458 0.203224
thorax -6.10338 0.708993 -1.75381
lowerneck -11.2108 -0.822629 6.1882
upperneck 36.3393 -3.3061 1.73602
head 14.3089 -0.246386 -0.857385
rclavicle -2.61487e-015 9.24349e-015
rhumerus -16.6296 -2.22895 -44.2149
rradius 89.3923
rwrist -8.29454
rhand -26.2034 1.86436
rfingers 7.12502
rthumb 0.34933 -28.1151
lclavicle -2.61487e-015 9.24349e-015
lhumerus -18.3632 -25.0168 72.2202
lradius 113.86
lwrist 0.364069
lhand -19.1434 10.2816
lfingers 7.12502
lthumb 7.16674 40.1402
rfemur -28.3385 1.20259 8.38199
rtibia 29.65
rfoot -5.22873 -15.513
rtoes -13.2567
lfemur -8.20701 -13.5993 -5.29524
ltibia 22.3162
lfoot -21.2774 9.69339
ltoes -19.6542
2413
root 1.00801 15.3948 9.16562 11.3751 14.4245 -3.22552
lowerback 0.169983 1.16103 3.13118
upperback -5.90066 1.70573 0.273992
thorax -6.13932 0.701635 -1.56023
lowerneck -11.2568 -0.823277 6.16834
upperneck 36.1665 -3.28599 1.66045
head 14.2363 -0.262153 -0.883288
rclavicle -4.22324e-014 -2.03754e-014
rhumerus -18.5419 -2.73504 -43.7413
rradius 89.1963
rwrist -8.60312
rhand -25.5382 1.67169
rfingers 7.12502
rthumb 0.99176 -28.3058
lclavicle -4.22324e-014 -2.03754e-014
lhumerus -19.2462 -23.8448 71.9864
lradius 113.248
lwrist 0.322325
lhand -19.1052 10.29
lfingers 7.12502
lthumb 7.20361 40.1474
rfemur -28.4037 1.95021 7.58129
rtibia 28.4718
rfoot -3.91869 -15.8962
rtoes -13.2009
lfemur -8.08343 -13.3145 -6.12007
ltibia 21.7615
lfoot -21.1479 10.153
ltoes -18.7106
2414
root 1.1211 15.4214 9.09014 11.6669 13.7029 -3.05554
lowerback 0.167594 1.14038 2.89265
upperback -5.92682 1.67214 0.328716
thorax -6.17412 0.697896 -1.36862
lowerneck -11.2869 -0.827052 6.16936
upperneck 35.9755 -3.26421 1.55957
head 14.1512 -0.27849 -0.92244
rclavicle 8.32877e-015 1.38155e-014
rhumerus -20.4227 -3.28332 -43.3029
rradius 88.958
rwrist -8.87683
rhand -24.8374 1.3798
rfingers 7.12502
rthumb 1.6686 -28.5934
lclavicle 8.32877e-015 1.38155e-014
lhumerus -20.0784 -22.688 71.6943
lradius 112.575
lwrist 0.242522
lhand -19.0873 10.2777
lfingers 7.12502
lthumb 7.22088 40.1345
rfemur -28.5501 2.75296 6.72223
rtibia 27.3179
rfoot -2.56971 -16.4185
rtoes -12.9596
lfemur -8.02796 -13.0433 -6.9505
ltibia 21.2212
lfoot -20.9783 10.5964
ltoes -17.6998
2415
root 1.23209 15.4484 9.0147 11.9897 12.9808 -2.87076
lowerback 0.142663 1.12506 2.64245
upperback -5.95264 1.64383 0.370984
thorax -6.19509 0.697393 -1.18317
lowerneck -11.3269 -0.834723 6.18838
upperneck 35.771 -3.24506 1.43617
head 14.0615 -0.296829 -0.973995
rclavicle 2.52519e-015 6.26172e-015
rhumerus -22.2641 -3.8765 -42.8985
rradius 88.6756
rwrist -9.17077
rhand -24.1534 1.01858
rfingers 7.12502
rthumb 2.32918 -28.9484
lclavicle 2.52519e-015 6.26172e-015
lhumerus -20.8246 -21.5422 71.3393
lradius 111.837
lwrist 0.147539
lhand -19.0559 10.2751
lfingers 7.12502
lthumb 7.25119 40.1309
rfemur -28.7542 3.63824 5.8143
rtibia 26.1733
rfoot -1.18124 -17.1155
rtoes -12.5557
lfemur -8.03761 -12.8049 -7.76789
ltibia 20.6995
lfoot -20.7719 11.0231
ltoes -16.7318
2416
root 1.34067 15.4753 8.94013 12.3294 12.2668 -2.69612
lowerback 0.0850627 1.11204 2.4019
upperback -5.96907 1.61762 0.4104
thorax -6.18679 0.697917 -1.00532
lowerneck -11.4022 -0.838129 6.22451
upperneck 35.5691 -3.21862 1.28802
head 13.9808 -0.312388 -1.03748
rclavicle 5.38233e-014 2.95941e-014
rhumerus -24.0407 -4.50493 -42.5324
rradius 88.3342
rwrist -9.53869
rhand -23.4573 0.643022
rfingers 7.12502
rthumb 3.00147 -29.3156
lclavicle 5.38233e-014 2.95941e-014
lhumerus -21.491 -20.4116 70.9207
lradius 111.037
lwrist 0.077873
lhand -19.0142 10.302
lfingers 7.12502
lthumb 7.29144 40.1564
rfemur -29.0158 4.65872 4.86377
rtibia 25.0721
rfoot 0.190778 -18.0465
rtoes -11.938
lfemur -8.13002 -12.6115 -8.54085
ltibia 20.2557
lfoot -20.5634 11.4327
ltoes -15.8653
2417
root 1.44644 15.5016 8.86715 12.6728 11.57 -2.55911
lowerback -0.000839489 1.09845 2.19472
upperback -5.97799 1.5915 0.458073
thorax -6.15361 0.697352 -0.836863
lowerneck -11.5105 -0.837489 6.26358
upperneck 35.3759 -3.18474 1.12413
head 13.9116 -0.325601 -1.10675
rclavicle -4.75256e-014 -1.26353e-014
rhumerus -25.7513 -5.14283 -42.2034
rradius 87.9351
rwrist -10.0244
rhand -22.7925 0.277994
rfingers 7.12502
rthumb 3.64346 -29.6706
lclavicle -4.75256e-014 -1.26353e-014
lhumerus -22.0805 -19.2919 70.4533
lradius 110.18
lwrist 0.0745681
lhand -18.946 10.3781
lfingers 7.12502
lthumb 7.35729 40.2302
rfemur -29.3104 5.87756 3.87739
rtibia 23.9961
rfoot 1.50512 -19.2877
rtoes -11.0401
lfemur -8.28638 -12.4699 -9.23643
ltibia 19.8751
lfoot -20.3509 11.8239
ltoes -15.1191
2418
root 1.54922 15.5266 8.79615 13.0071 10.9048 -2.47758
lowerback -0.114781 1.07937 2.04084
upperback -5.97572 1.5599 0.520235
thorax -6.0917 0.692024 -0.682185
lowerneck -11.6414 -0.829045 6.30536
upperneck 35.1887 -3.13949 0.952411
head 13.8507 -0.333944 -1.17787
rclavicle 4.86401e-015 -6.08778e-015
rhumerus -27.3806 -5.77192 -41.9176
rradius 87.4704
rwrist -10.6567
rhand -22.2172 -0.0387992
rfingers 7.12502
rthumb 4.19904 -29.9772
lclavicle 4.86401e-015 -6.08778e-015
lhumerus -22.5922 -18.1795 69.9443
lradius 109.268
lwrist 0.170568
lhand -18.8519 10.502
lfingers 7.12502
lthumb 7.44815 40.3509
rfemur -29.6264 7.33137 2.8607
rtibia 22.9705
rfoot 2.66117 -20.9099
rtoes -9.83172
lfemur -8.51031 -12.3756 -9.83374
ltibia 19.5907
lfoot -20.1596 12.1842
ltoes -14.4864
2419
root 1.64866 15.5496 8.72787 13.3166 10.2745 -2.47096
lowerback -0.245305 1.05676 1.96039
upperback -5.96805 1.5266 0.600814
thorax -6.01337 0.682672 -0.549048
lowerneck -11.7681 -0.817234 6.34583
upperneck 35.0059 -3.08829 0.780233
head 13.7916 -0.339582 -1.24767
rclavicle 1.95252e-014 -5.06901e-015
rhumerus -28.9537 -6.36767 -41.6688
rradius 86.9568
rwrist -11.4428
rhand -21.7599 -0.301112
rfingers 7.12502
rthumb 4.64062 -30.2303
lclavicle 1.95252e-014 -5.06901e-015
lhumerus -23.0543 -17.0855 69.4061
lradius 108.307
lwrist 0.375995
lhand -18.736 10.6648
lfingers 7.12502
lthumb 7.55997 40.5097
rfemur -29.9841 9.04693 1.83255
rtibia 22.0775
rfoot 3.5132 -22.9469
rtoes -8.37886
lfemur -8.82229 -12.3095 -10.3166
ltibia 19.4881
lfoot -20.0443 12.5167
ltoes -13.9377
